<?xml version="1.0" standalone="no"?>
<!DOCTYPE svg PUBLIC "-//W3C//DTD SVG 20010904//EN"
 "http://www.w3.org/TR/2001/REC-SVG-20010904/DTD/svg10.dtd">
<svg version="1.0" xmlns="http://www.w3.org/2000/svg"
 width="1024.000000pt" height="506.000000pt" viewBox="0 0 1024.000000 506.000000"
 preserveAspectRatio="xMidYMid meet">

<g transform="translate(0.000000,506.000000) scale(0.100000,-0.100000)"
fill="#000000" stroke="none">
<path d="M0 2530 l0 -2530 5120 0 5120 0 0 2530 0 2530 -5120 0 -5120 0 0
-2530z m2530 -165 l0 -1275 -185 0 -185 0 0 1275 0 1275 185 0 185 0 0 -1275z
m1831 921 c60 -22 115 -68 140 -118 17 -34 20 -55 17 -124 -3 -73 -7 -87 -33
-126 -21 -28 -50 -53 -90 -73 -53 -27 -69 -30 -172 -33 l-113 -4 0 -124 0
-124 -75 0 -75 0 0 376 0 376 178 -4 c131 -4 189 -10 223 -22z m716 -5 c65
-29 118 -86 134 -143 15 -56 6 -144 -19 -194 -20 -38 -85 -94 -110 -94 -7 0
-12 -3 -12 -7 0 -5 40 -69 89 -143 l88 -135 -86 -3 c-100 -3 -84 -17 -186 152
l-69 116 -48 0 -48 0 0 -135 0 -135 -80 0 -80 0 0 368 c0 203 3 372 8 376 4 5
88 6 187 4 160 -4 186 -7 232 -27z m443 -346 l0 -375 -75 0 -75 0 0 375 0 375
75 0 75 0 0 -375z m1339 48 c67 -181 128 -343 136 -361 8 -18 15 -37 15 -42 0
-6 -35 -10 -79 -10 l-79 0 -27 75 -28 75 -148 0 c-145 0 -148 0 -154 -22 -4
-13 -16 -49 -27 -80 l-21 -58 -78 0 c-44 0 -79 2 -79 4 0 3 14 42 31 88 17 46
75 209 130 362 55 154 102 283 105 288 3 4 45 8 94 8 l88 0 121 -327z m591 81
l165 -246 3 246 2 246 75 0 75 0 0 -375 0 -375 -74 0 -74 0 -50 73 c-27 39
-82 119 -122 177 -39 58 -91 134 -113 170 l-42 65 -3 -242 -2 -243 -80 0 -80
0 0 375 0 375 78 0 77 -1 165 -245z m642 79 l3 -156 47 59 c25 33 54 68 65 79
10 11 49 57 87 103 l69 82 95 0 95 0 -20 -22 c-11 -13 -73 -87 -137 -166
l-117 -143 64 -92 c151 -218 217 -316 217 -322 0 -3 -41 -4 -91 -3 l-91 3
-101 158 -100 158 -44 -43 -43 -42 0 -118 0 -118 -80 0 -80 0 0 368 c0 203 2
371 4 373 2 2 38 3 80 1 l76 -4 2 -155z m1124 -167 c68 -181 130 -347 139
-368 l15 -38 -83 0 -82 0 -24 75 -25 76 -150 -3 -150 -3 -27 -75 -27 -75 -81
-3 -80 -3 25 68 c26 70 170 466 219 606 l28 78 90 -3 90 -3 123 -329z m-3326
174 c76 -135 100 -169 100 -140 0 5 35 73 77 150 l78 140 88 0 89 0 -20 -32
c-11 -18 -72 -121 -136 -228 l-116 -195 0 -142 0 -143 -75 0 -75 0 0 149 0
150 -121 198 c-67 109 -128 208 -137 221 l-14 22 89 0 90 0 83 -150z m-3890
-1020 l0 -1040 -170 0 -170 0 0 1040 0 1040 170 0 170 0 0 -1040z m1032 323
c3 -707 3 -708 26 -775 12 -37 43 -97 67 -134 25 -37 45 -68 45 -71 0 -2 -10
-1 -23 1 -15 3 -24 -1 -24 -10 0 -7 5 -10 11 -7 27 17 54 9 87 -24 44 -46 138
-93 200 -100 l49 -6 0 -118 0 -119 -385 0 -385 0 0 1035 0 1035 165 0 164 0 3
-707z m-1532 -528 l0 -835 -375 0 -375 0 0 119 0 118 48 7 c107 14 251 123
310 234 60 111 62 136 62 690 l0 502 165 0 165 0 0 -835z m6548 380 c52 -16
92 -53 107 -102 6 -22 4 -23 -44 -23 -32 0 -51 4 -51 12 0 28 -33 48 -79 48
-59 -1 -81 -17 -81 -62 0 -44 10 -52 100 -83 125 -43 170 -83 170 -155 0 -106
-114 -176 -240 -149 -82 17 -123 53 -145 127 -6 21 -4 22 43 22 43 0 51 -3 56
-23 12 -49 115 -75 164 -41 15 10 22 25 22 49 0 43 -29 66 -115 95 -111 37
-155 78 -155 148 0 71 38 119 111 140 50 15 79 14 137 -3z m1014 -12 c34 -20
63 -56 73 -90 6 -21 3 -23 -35 -23 -34 0 -48 6 -70 30 -22 24 -36 30 -70 30
-62 0 -80 -14 -80 -59 0 -47 9 -55 97 -85 98 -33 131 -52 153 -89 32 -51 23
-130 -19 -168 -98 -91 -290 -61 -335 52 -9 22 -16 42 -16 44 0 3 21 5 48 5 42
0 48 -3 60 -28 15 -34 49 -52 100 -52 53 0 82 23 82 65 0 43 -25 63 -124 99
-91 33 -132 68 -142 120 -14 77 28 139 112 166 42 13 130 4 166 -17z m-4782
-28 l0 -45 -120 0 -120 0 0 -65 0 -65 110 0 110 0 0 -35 0 -35 -110 0 -110 0
0 -70 0 -70 120 0 120 0 0 -45 0 -45 -165 0 -165 0 0 260 0 260 165 0 165 0 0
-45z m357 -144 l123 -185 0 187 0 187 45 0 45 0 0 -260 0 -260 -47 0 -48 0
-120 176 -120 176 -3 -176 -2 -176 -40 0 -39 0 -3 256 c-2 141 -1 258 2 260 2
3 22 4 44 2 39 -3 40 -4 163 -187z m1183 142 l0 -43 -120 0 -120 0 0 -65 0
-65 110 0 110 0 0 -35 0 -34 -107 -3 -108 -3 -3 -67 -3 -68 121 0 120 0 0 -45
0 -45 -165 0 -165 0 0 258 0 257 165 0 165 0 0 -42z m458 17 c47 -27 82 -86
82 -139 0 -47 -35 -108 -73 -127 -17 -9 -34 -18 -36 -20 -2 -2 24 -46 58 -99
33 -52 61 -97 61 -100 0 -3 -10 -3 -22 -1 -13 3 -39 5 -58 5 -33 1 -38 6 -90
96 -54 93 -56 95 -92 95 l-37 0 -3 -97 -3 -98 -45 0 -45 0 -3 259 -2 259 133
-5 c116 -4 138 -7 175 -28z m500 4 c61 -22 95 -71 100 -142 3 -47 0 -63 -20
-91 -38 -56 -79 -74 -180 -79 l-88 -4 0 -89 0 -89 -45 0 -45 0 0 258 0 257
118 -3 c74 -2 133 -8 160 -18z m857 -236 l0 -258 -52 0 -53 0 0 253 c0 140 3
257 7 261 4 4 28 6 53 4 l45 -3 0 -257z m1005 215 l0 -43 -120 0 -120 0 0 -65
0 -65 110 0 110 0 0 -35 0 -35 -110 0 -110 0 0 -70 0 -70 120 0 120 0 0 -45 0
-45 -167 2 -168 3 -3 245 c-1 134 -1 249 2 255 2 6 66 10 170 10 l166 0 0 -42z
m-3272 0 l-3 -38 -75 -3 -75 -3 2 -214 2 -215 -49 0 -50 0 0 215 0 215 -75 0
-75 0 0 40 0 40 201 0 200 0 -3 -37z m1956 11 c53 -27 77 -62 83 -117 8 -64
-24 -126 -76 -152 l-39 -20 59 -93 c32 -51 59 -95 59 -98 0 -2 -24 -4 -53 -4
l-52 0 -45 75 c-25 41 -49 83 -55 95 -8 15 -19 20 -52 20 l-43 0 0 -95 0 -95
-45 0 -45 0 0 256 0 256 133 -4 c110 -2 139 -6 171 -24z m-2554 -851 c42 -29
51 -46 46 -86 -5 -40 -30 -77 -53 -77 -18 0 -18 -2 26 -67 l39 -58 -31 -3
c-34 -4 -52 13 -84 80 -14 30 -24 38 -45 38 -27 0 -28 -1 -28 -60 l0 -60 -30
0 -30 0 0 155 0 155 83 0 c61 0 89 -4 107 -17z m270 -138 l0 -155 -30 0 -30 0
0 155 0 155 30 0 30 0 0 -155z m405 124 c42 -37 43 -45 10 -53 -18 -5 -32 -1
-47 14 -21 20 -70 26 -103 14 -25 -10 -45 -58 -45 -109 0 -38 5 -52 29 -76 49
-49 128 -34 146 29 6 20 3 22 -34 22 -37 0 -41 2 -41 25 0 24 2 25 65 25 l65
0 0 -38 c0 -147 -195 -196 -267 -67 -64 114 7 245 133 245 45 0 59 -5 89 -31z
m265 -34 l0 -65 70 0 70 0 0 65 0 65 30 0 30 0 0 -155 0 -155 -30 0 -30 0 0
65 0 65 -70 0 -70 0 0 -65 c0 -63 -1 -65 -25 -65 l-25 0 0 155 0 155 25 0 c24
0 25 -2 25 -65z m600 37 c0 -26 -2 -27 -45 -24 l-45 4 0 -131 0 -131 -30 0
-30 0 0 130 0 130 -49 0 c-45 0 -48 2 -48 25 l0 25 123 0 124 0 0 -28z m513
17 c74 -38 90 -103 39 -160 -24 -27 -37 -33 -85 -37 l-57 -4 0 -49 c0 -48 -1
-49 -30 -49 l-30 0 0 155 0 155 71 0 c39 0 80 -5 92 -11z m277 -119 l0 -130
70 0 c68 0 70 -1 70 -25 0 -25 0 -25 -97 -25 l-98 0 0 155 0 155 28 0 27 0 0
-130z m480 68 c13 -35 41 -105 61 -156 l37 -93 -31 3 c-26 2 -34 9 -42 36 -9
32 -9 32 -76 32 -66 0 -66 0 -75 -32 -8 -27 -15 -34 -42 -36 l-32 -3 14 33 c8
18 31 76 50 128 58 159 53 150 83 150 25 0 31 -7 53 -62z m425 48 c31 -13 55
-41 55 -65 0 -18 -52 -12 -65 6 -19 25 -89 23 -115 -3 -40 -39 -39 -126 2
-164 29 -27 92 -27 115 0 10 11 30 20 45 20 28 0 28 0 13 -30 -23 -44 -67 -63
-133 -58 -46 4 -60 10 -83 36 -33 37 -52 100 -43 139 26 109 113 159 209 119z
m415 -15 c0 -24 -3 -28 -20 -24 -11 3 -45 2 -75 -2 -55 -6 -55 -7 -55 -41 l0
-34 70 0 c68 0 70 -1 70 -25 0 -24 -2 -25 -70 -25 l-70 0 0 -40 0 -40 79 0
c78 0 78 0 73 -25 -4 -25 -6 -25 -103 -25 l-99 0 0 155 0 155 100 0 100 0 0
-29z"/>
<path d="M2172 1400 c0 -14 2 -19 5 -12 2 6 2 18 0 25 -3 6 -5 1 -5 -13z"/>
<path d="M2494 1310 c2 -41 1 -60 -1 -41 -3 26 -7 31 -14 20 -7 -10 -8 -8 -7
11 3 22 -2 25 -42 31 -25 4 -61 3 -80 -3 -51 -14 -120 -50 -120 -62 0 -27 -19
14 -23 49 -2 29 -4 20 -7 -30 l-3 -70 -12 80 -12 80 -2 -138 -1 -137 171 2
172 3 -2 105 c-1 58 -6 121 -11 140 -8 28 -9 20 -6 -40z"/>
<path d="M2221 1314 c0 -11 3 -14 6 -6 3 7 2 16 -1 19 -3 4 -6 -2 -5 -13z"/>
<path d="M4115 3172 c-3 -3 -5 -57 -5 -120 l0 -114 101 4 c99 3 101 3 130 36
48 54 37 141 -21 176 -28 16 -192 31 -205 18z"/>
<path d="M4810 3065 l0 -107 99 4 c80 2 103 7 120 22 43 39 44 118 1 161 -17
17 -36 21 -120 23 l-100 4 0 -107z"/>
<path d="M6601 3007 c-24 -73 -46 -138 -48 -144 -4 -10 19 -13 97 -13 77 0
101 3 98 13 -3 6 -24 68 -48 137 -23 69 -46 128 -49 132 -3 3 -26 -53 -50
-125z"/>
<path d="M9000 3138 c0 -4 -22 -70 -50 -147 l-49 -141 104 0 104 0 -50 142
c-45 129 -59 163 -59 146z"/>
<path d="M1969 1220 l-2 -55 -7 45 -7 45 -2 -40 c-1 -22 -5 -35 -9 -30 -10 14
-46 19 -37 6 5 -9 -38 -17 -68 -12 -4 1 -21 -6 -38 -14 -26 -14 -31 -14 -44
-1 -8 8 -23 13 -32 11 -10 -2 -24 -4 -30 -4 -7 -1 -13 -10 -13 -21 0 -19 7
-20 128 -22 l127 -2 -135 -6 c-178 -7 -145 -21 40 -18 l145 3 1 65 c1 84 -14
128 -17 50z"/>
<path d="M2712 1283 l-2 -183 375 0 375 0 0 104 0 105 -53 11 c-30 6 -84 29
-121 50 -75 44 -85 48 -66 25 10 -12 10 -15 -3 -15 -11 0 -14 7 -12 23 3 16
-2 25 -20 34 -20 9 -25 8 -25 -2 0 -7 7 -16 16 -19 8 -3 12 -11 9 -16 -5 -8
-15 -6 -32 5 -22 15 -26 15 -41 1 -13 -11 -22 -12 -35 -4 -21 11 -51 3 -42
-12 4 -6 -10 -10 -34 -10 -23 0 -41 -4 -41 -10 0 -6 -35 -10 -84 -10 -51 0
-97 -6 -119 -15 l-36 -15 -4 68 c-2 37 -4 -15 -5 -115z m423 107 c3 -5 1 -10
-4 -10 -6 0 -11 5 -11 10 0 6 2 10 4 10 3 0 8 -4 11 -10z m200 -60 c22 -11 33
-20 25 -20 -8 0 -28 9 -45 20 -38 25 -30 25 20 0z"/>
<path d="M1383 1133 c15 -2 39 -2 55 0 15 2 2 4 -28 4 -30 0 -43 -2 -27 -4z"/>
<path d="M1471 1124 c0 -11 3 -14 6 -6 3 7 2 16 -1 19 -3 4 -6 -2 -5 -13z"/>
<path d="M1040 1110 l-245 -6 230 -1 c127 0 273 3 325 7 l95 7 -80 -1 c-44 0
-190 -3 -325 -6z"/>
<path d="M8840 2086 c0 -3 9 -10 20 -16 11 -6 20 -8 20 -6 0 3 -9 10 -20 16
-11 6 -20 8 -20 6z"/>
<path d="M9048 1823 c7 -3 16 -2 19 1 4 3 -2 6 -13 5 -11 0 -14 -3 -6 -6z"/>
<path d="M6070 2145 l0 -75 74 0 c54 0 79 4 90 16 39 38 28 106 -20 124 -14 6
-52 10 -85 10 l-59 0 0 -75z"/>
<path d="M6590 2136 l0 -86 75 0 c93 0 115 16 115 83 0 64 -23 81 -116 85
l-74 4 0 -86z"/>
<path d="M8568 2283 c7 -3 16 -2 19 1 4 3 -2 6 -13 5 -11 0 -14 -3 -6 -6z"/>
<path d="M8578 2033 c7 -3 16 -2 19 1 4 3 -2 6 -13 5 -11 0 -14 -3 -6 -6z"/>
<path d="M8600 1820 c-13 -8 -12 -10 3 -10 9 0 17 5 17 10 0 12 -1 12 -20 0z"/>
<path d="M7110 2135 l0 -75 70 0 c79 0 116 13 124 44 10 38 6 57 -19 81 -21
22 -33 25 -100 25 l-75 0 0 -75z"/>
<path d="M4640 1345 l0 -45 48 0 c50 0 72 12 72 41 0 30 -29 49 -76 49 l-44 0
0 -45z"/>
<path d="M5446 1193 c-6 -14 -5 -15 5 -6 7 7 10 15 7 18 -3 3 -9 -2 -12 -12z"/>
<path d="M5308 1153 c7 -3 16 -2 19 1 4 3 -2 6 -13 5 -11 0 -14 -3 -6 -6z"/>
<path d="M6720 1335 l0 -55 36 0 c54 0 74 15 74 55 0 40 -20 55 -74 55 l-36 0
0 -55z"/>
<path d="M6738 1263 c12 -2 32 -2 45 0 12 2 2 4 -23 4 -25 0 -35 -2 -22 -4z"/>
<path d="M6681 1164 c0 -11 3 -14 6 -6 3 7 2 16 -1 19 -3 4 -6 -2 -5 -13z"/>
<path d="M7083 1350 c0 -30 2 -43 4 -27 2 15 2 39 0 55 -2 15 -4 2 -4 -28z"/>
<path d="M7062 1190 c0 -14 2 -19 5 -12 2 6 2 18 0 25 -3 6 -5 1 -5 -13z"/>
<path d="M7088 1149 c-8 -5 12 -9 51 -9 35 0 62 2 60 4 -10 8 -98 13 -111 5z"/>
<path d="M7503 1315 l-21 -65 44 0 c24 0 44 3 44 8 -1 11 -36 112 -42 117 -2
2 -14 -25 -25 -60z"/>
<path d="M7560 1365 c0 -5 5 -17 10 -25 5 -8 10 -10 10 -5 0 6 -5 17 -10 25
-5 8 -10 11 -10 5z"/>
<path d="M7491 1344 c0 -11 3 -14 6 -6 3 7 2 16 -1 19 -3 4 -6 -2 -5 -13z"/>
<path d="M7580 1311 c0 -6 4 -13 10 -16 6 -3 7 1 4 9 -7 18 -14 21 -14 7z"/>
<path d="M7597 1256 c-4 -10 -3 -15 3 -11 6 3 10 1 10 -6 0 -7 3 -10 6 -6 3 3
2 13 -4 22 -8 16 -9 16 -15 1z"/>
<path d="M7421 1183 c-1 -6 -4 -20 -7 -30 -5 -17 -5 -17 6 0 6 10 9 23 6 30
-3 9 -5 9 -5 0z"/>
<path d="M7634 1173 c2 -12 -1 -24 -8 -27 -6 -2 -3 -5 7 -5 19 -1 20 5 6 34
-9 19 -9 19 -5 -2z"/>
<path d="M7898 1414 c-16 -8 -28 -17 -28 -20 0 -2 9 0 19 6 11 5 28 7 38 4 14
-5 15 -4 4 4 -11 8 -10 11 5 15 11 3 13 5 4 5 -8 1 -27 -6 -42 -14z"/>
<path d="M7968 1403 c7 -3 16 -2 19 1 4 3 -2 6 -13 5 -11 0 -14 -3 -6 -6z"/>
<path d="M8012 1390 c7 -11 16 -20 20 -20 15 0 8 15 -12 28 -19 12 -20 11 -8
-8z"/>
<path d="M7846 1364 c-5 -14 -4 -15 9 -4 17 14 19 20 6 20 -5 0 -12 -7 -15
-16z"/>
<path d="M7821 1324 c0 -11 3 -14 6 -6 3 7 2 16 -1 19 -3 4 -6 -2 -5 -13z"/>
<path d="M7824 1219 c-5 -8 -3 -9 6 -4 10 6 12 4 7 -9 -4 -10 -3 -15 3 -11 6
3 10 -1 10 -9 0 -8 4 -17 10 -21 5 -3 5 7 -1 25 -13 35 -25 45 -35 29z"/>
<path d="M8018 1192 c-7 -11 -22 -22 -33 -25 -20 -5 -20 -5 0 -6 20 -1 61 36
52 46 -3 2 -11 -4 -19 -15z"/>
<path d="M7906 1152 c-2 -4 12 -9 32 -10 41 -3 41 2 0 12 -15 3 -29 2 -32 -2z"/>
<path d="M8343 1403 c15 -2 37 -2 50 0 12 2 0 4 -28 4 -27 0 -38 -2 -22 -4z"/>
<path d="M8246 1345 c4 -8 8 -15 10 -15 2 0 4 7 4 15 0 8 -4 15 -10 15 -5 0
-7 -7 -4 -15z"/>
<path d="M8261 1284 c0 -11 3 -14 6 -6 3 7 2 16 -1 19 -3 4 -6 -2 -5 -13z"/>
<path d="M8281 1281 c0 -11 2 -12 6 -3 4 10 8 10 19 1 9 -7 14 -8 14 -1 0 6
10 12 23 15 12 2 3 4 -20 4 -34 1 -43 -3 -42 -16z"/>
<path d="M8250 1217 c-3 -27 -1 -51 3 -54 5 -3 3 -9 -4 -14 -9 -5 21 -9 74 -9
48 0 87 3 87 8 0 4 -20 6 -45 4 -31 -3 -45 0 -45 8 0 10 -3 10 -15 0 -27 -23
-44 -4 -47 52 l-3 53 -5 -48z"/>
</g>
</svg>
